<svg width="89" height="88" viewBox="0 0 89 88" fill="none" xmlns="http://www.w3.org/2000/svg">
<path d="M44.6667 7.33334C47.952 7.33334 51.1347 7.766 54.1633 8.57634L46.368 16.368C45.7766 16.9618 45.255 17.6211 44.8133 18.3333H44.6667C39.5903 18.3333 34.6279 19.8387 30.407 22.6589C26.1862 25.4792 22.8964 29.4878 20.9538 34.1778C19.0111 38.8678 18.5028 44.0285 19.4932 49.0073C20.4835 53.9862 22.928 58.5595 26.5176 62.1491C30.1071 65.7386 34.6805 68.1831 39.6593 69.1735C44.6382 70.1638 49.7989 69.6556 54.4889 67.7129C59.1788 65.7703 63.1874 62.4805 66.0077 58.2596C68.828 54.0388 70.3333 49.0764 70.3333 44V43.8533C71.0373 43.4133 71.6973 42.8963 72.295 42.295L80.0903 34.5033C80.9007 37.532 81.3333 40.7147 81.3333 44C81.3333 64.251 64.9177 80.6667 44.6667 80.6667C24.4157 80.6667 8 64.251 8 44C8 23.749 24.4157 7.33334 44.6667 7.33334ZM43.1487 25.729C43.1487 28.8493 42.9947 32.0137 43.1633 35.1303L41.1833 37.1103C40.5022 37.7914 39.962 38.6 39.5933 39.4899C39.2247 40.3798 39.035 41.3336 39.035 42.2968C39.035 43.2601 39.2247 44.2138 39.5933 45.1037C39.962 45.9936 40.5022 46.8022 41.1833 47.4833C41.8644 48.1644 42.673 48.7047 43.5629 49.0733C44.4528 49.4419 45.4066 49.6317 46.3698 49.6317C47.3331 49.6317 48.2868 49.4419 49.1767 49.0733C50.0666 48.7047 50.8752 48.1644 51.5563 47.4833L53.5363 45.5033C56.653 45.672 59.8137 45.518 62.9377 45.518C62.648 49.0026 61.3679 52.3317 59.2484 55.1126C57.1288 57.8936 54.2582 60.0104 50.975 61.2134C47.6919 62.4164 44.1332 62.6555 40.7187 61.9024C37.3041 61.1493 34.1762 59.4354 31.7037 56.963C29.2312 54.4905 27.5174 51.3625 26.7643 47.948C26.0112 44.5335 26.2502 40.9748 27.4533 37.6916C28.6563 34.4085 30.7731 31.5379 33.5541 29.4183C36.335 27.2987 39.6641 26.0187 43.1487 25.729ZM68.5147 7.799C69.1839 8.07649 69.756 8.54604 70.1586 9.14837C70.5613 9.7507 70.7765 10.4588 70.777 11.1833V17.8933H77.4833C78.2084 17.8935 78.9172 18.1086 79.52 18.5115C80.1229 18.9144 80.5927 19.487 80.8702 20.1569C81.1476 20.8268 81.2202 21.564 81.0788 22.2751C80.9374 22.9863 80.5883 23.6395 80.0757 24.1523L67.1067 37.1067C66.4192 37.7943 65.4867 38.1808 64.5143 38.181H55.6667L48.964 44.8873C48.276 45.5754 47.3428 45.9619 46.3698 45.9619C45.3968 45.9619 44.4637 45.5754 43.7757 44.8873C43.0877 44.1993 42.7011 43.2662 42.7011 42.2932C42.7011 41.3202 43.0877 40.387 43.7757 39.699L50.482 33V24.1487C50.4816 23.6666 50.5763 23.1891 50.7607 22.7437C50.945 22.2982 51.2154 21.8935 51.5563 21.5527L64.518 8.591C65.0308 8.07792 65.6842 7.72845 66.3956 7.58682C67.107 7.44519 67.8445 7.51775 68.5147 7.79534" fill="black"/>
</svg>
